# xmcd
#
# Track frame offsets: 
#        182
#        23335
#        39555
#        57790
#        64512
#        79445
#        95025
#        109505
#        124377
#        139832
#        157125
#        174300
#        190627
#        206920
#        221927
#        240275
#        254152
#        265632
#        280350
#        292612
#        307747
#        322850
#
# Disc length: 4528 seconds
#
# Revision: 3
# Processed by: cddbd v1.5.2PL0 Copyright (c) Steve Scherf et al.
# Submitted via: ExactAudioCopy v0.95b3
#
DISCID=3911ae16
DTITLE=Ronstadt, Linda - Box Set: Album Retrospective
DYEAR=1900
DGENRE=Rock
TTITLE0=When We Ran
TTITLE1=Ruler Of My Heart
TTITLE2=Cry ÎTil My Tears Run Dry
TTITLE3=We Will Rock You
TTITLE4=Winter Light
TTITLE5=Anyone Who Had A Heart
TTITLE6=I Just Don't Know What To Do With Myself
TTITLE7=Don't Talk (Put Your Head On My Shoulder)
TTITLE8=Do What You Gotta Do
TTITLE9=Heartbeats Accelerating
TTITLE10=Goodbye My Friend
TTITLE11=Adios
TTITLE12=Cry Like A Rainstorm
TTITLE13=Trouble Again
TTITLE14=Easy For You To Say
TTITLE15=The Moon Is A Harsh Mistress
TTITLE16=Get Closer
TTITLE17=Hurts So Bad
TTITLE18=I Can't Let Go
TTITLE19=Ooh Baby Baby
TTITLE20=Just One Look
TTITLE21=Poor Poor Pitiful Me
EXTD=Boxed Set
EXTT0=
EXTT1=
EXTT2=
EXTT3=
EXTT4=
EXTT5=
EXTT6=
EXTT7=
EXTT8=
EXTT9=
EXTT10=
EXTT11=
EXTT12=
EXTT13=
EXTT14=
EXTT15=
EXTT16=
EXTT17=
EXTT18=
EXTT19=
EXTT20=
EXTT21=
PLAYORDER=
